<svg xmlns="http://www.w3.org/2000/svg" version="1.1" xmlns:xlink="http://www.w3.org/1999/xlink" xmlns:svgjs="http://svgjs.com/svgjs" width="1920" height="1080" preserveAspectRatio="none" viewBox="0 0 1920 1080"><g mask="url(&quot;#SvgjsMask1083&quot;)" fill="none"><rect width="1920" height="1080" x="0" y="0" fill="rgba(255, 255, 255, 1)"></rect><g mask="url(&quot;#SvgjsMask1085&quot;)"><path d="M-23.5 540.5L23.5 540.5L70.5 540.5L117.5 540.5" stroke="url(#SvgjsLinearGradient1084)" stroke-width="7.83"></path><path d="M105.75 540.5 a11.75 11.75 0 1 0 23.5 0 a11.75 11.75 0 1 0 -23.5 0z" fill="url(#SvgjsLinearGradient1084)"></path><path d="M352.5 493.5L399.5 493.5L446.5 493.5L493.5 493.5M305.5 493.5L352.5 540.5L399.5 540.5L446.5 540.5L493.5 540.5M540.5 446.5L587.5 493.5L634.5 540.5L681.5 540.5L728.5 540.5M-23.5 493.5L23.5 493.5L70.5 493.5L117.5 493.5L164.5 493.5L211.5 493.5L258.5 493.5L305.5 493.5L352.5 493.5L399.5 446.5L446.5 446.5L493.5 446.5L540.5 446.5L587.5 446.5L634.5 446.5" stroke="url(#SvgjsLinearGradient1084)" stroke-width="7.83"></path><path d="M622.75 446.5 a11.75 11.75 0 1 0 23.5 0 a11.75 11.75 0 1 0 -23.5 0zM481.75 493.5 a11.75 11.75 0 1 0 23.5 0 a11.75 11.75 0 1 0 -23.5 0zM481.75 540.5 a11.75 11.75 0 1 0 23.5 0 a11.75 11.75 0 1 0 -23.5 0zM716.75 540.5 a11.75 11.75 0 1 0 23.5 0 a11.75 11.75 0 1 0 -23.5 0z" fill="url(#SvgjsLinearGradient1084)"></path><path d="M211.5 587.5L258.5 587.5L305.5 587.5M164.5 587.5L211.5 540.5L258.5 540.5L305.5 540.5M-23.5 587.5L23.5 587.5L70.5 587.5L117.5 587.5L164.5 587.5L211.5 587.5L258.5 634.5L305.5 634.5" stroke="url(#SvgjsLinearGradient1084)" stroke-width="7.83"></path><path d="M293.75 634.5 a11.75 11.75 0 1 0 23.5 0 a11.75 11.75 0 1 0 -23.5 0zM293.75 587.5 a11.75 11.75 0 1 0 23.5 0 a11.75 11.75 0 1 0 -23.5 0zM293.75 540.5 a11.75 11.75 0 1 0 23.5 0 a11.75 11.75 0 1 0 -23.5 0z" fill="url(#SvgjsLinearGradient1084)"></path><path d="M-23.5 446.5L23.5 446.5L70.5 446.5L117.5 446.5L164.5 446.5L211.5 446.5L258.5 446.5L305.5 446.5L352.5 446.5L399.5 399.5L446.5 399.5L493.5 399.5L540.5 399.5L587.5 399.5L634.5 399.5" stroke="url(#SvgjsLinearGradient1084)" stroke-width="7.83"></path><path d="M622.75 399.5 a11.75 11.75 0 1 0 23.5 0 a11.75 11.75 0 1 0 -23.5 0z" fill="url(#SvgjsLinearGradient1084)"></path><path d="M-23.5 634.5L23.5 634.5L70.5 634.5L117.5 634.5L164.5 634.5" stroke="url(#SvgjsLinearGradient1084)" stroke-width="7.83"></path><path d="M152.75 634.5 a11.75 11.75 0 1 0 23.5 0 a11.75 11.75 0 1 0 -23.5 0z" fill="url(#SvgjsLinearGradient1084)"></path><path d="M70.5 399.5L117.5 352.5M164.5 399.5L211.5 352.5L258.5 352.5L305.5 352.5M-23.5 399.5L23.5 399.5L70.5 399.5L117.5 399.5L164.5 399.5L211.5 399.5" stroke="url(#SvgjsLinearGradient1084)" stroke-width="7.83"></path><path d="M199.75 399.5 a11.75 11.75 0 1 0 23.5 0 a11.75 11.75 0 1 0 -23.5 0zM105.75 352.5 a11.75 11.75 0 1 0 23.5 0 a11.75 11.75 0 1 0 -23.5 0zM293.75 352.5 a11.75 11.75 0 1 0 23.5 0 a11.75 11.75 0 1 0 -23.5 0z" fill="url(#SvgjsLinearGradient1084)"></path><path d="M493.5 728.5L540.5 681.5L587.5 681.5M446.5 728.5L493.5 681.5M587.5 728.5L634.5 775.5L681.5 775.5L728.5 775.5L775.5 822.5M-23.5 681.5L23.5 681.5L70.5 681.5L117.5 681.5L164.5 681.5L211.5 681.5L258.5 681.5L305.5 681.5L352.5 681.5L399.5 728.5L446.5 728.5L493.5 728.5L540.5 728.5L587.5 728.5L634.5 728.5" stroke="url(#SvgjsLinearGradient1084)" stroke-width="7.83"></path><path d="M622.75 728.5 a11.75 11.75 0 1 0 23.5 0 a11.75 11.75 0 1 0 -23.5 0zM575.75 681.5 a11.75 11.75 0 1 0 23.5 0 a11.75 11.75 0 1 0 -23.5 0zM481.75 681.5 a11.75 11.75 0 1 0 23.5 0 a11.75 11.75 0 1 0 -23.5 0zM763.75 822.5 a11.75 11.75 0 1 0 23.5 0 a11.75 11.75 0 1 0 -23.5 0z" fill="url(#SvgjsLinearGradient1084)"></path><path d="M211.5 728.5L258.5 775.5L305.5 822.5L352.5 822.5M117.5 728.5L164.5 775.5L211.5 775.5M70.5 728.5L117.5 775.5L164.5 822.5M-23.5 728.5L23.5 728.5L70.5 728.5L117.5 728.5L164.5 728.5L211.5 728.5L258.5 728.5L305.5 728.5L352.5 728.5L399.5 775.5L446.5 775.5" stroke="url(#SvgjsLinearGradient1084)" stroke-width="7.83"></path><path d="M434.75 775.5 a11.75 11.75 0 1 0 23.5 0 a11.75 11.75 0 1 0 -23.5 0zM340.75 822.5 a11.75 11.75 0 1 0 23.5 0 a11.75 11.75 0 1 0 -23.5 0zM199.75 775.5 a11.75 11.75 0 1 0 23.5 0 a11.75 11.75 0 1 0 -23.5 0zM152.75 822.5 a11.75 11.75 0 1 0 23.5 0 a11.75 11.75 0 1 0 -23.5 0z" fill="url(#SvgjsLinearGradient1084)"></path><path d="M164.5 305.5L211.5 258.5L258.5 258.5M587.5 352.5L634.5 305.5M70.5 305.5L117.5 258.5M540.5 352.5L587.5 305.5L634.5 258.5L681.5 258.5L728.5 258.5L775.5 305.5M-23.5 305.5L23.5 305.5L70.5 305.5L117.5 305.5L164.5 305.5L211.5 305.5L258.5 305.5L305.5 305.5L352.5 352.5L399.5 352.5L446.5 352.5L493.5 352.5L540.5 352.5L587.5 352.5L634.5 352.5L681.5 305.5" stroke="url(#SvgjsLinearGradient1084)" stroke-width="7.83"></path><path d="M669.75 305.5 a11.75 11.75 0 1 0 23.5 0 a11.75 11.75 0 1 0 -23.5 0zM246.75 258.5 a11.75 11.75 0 1 0 23.5 0 a11.75 11.75 0 1 0 -23.5 0zM622.75 305.5 a11.75 11.75 0 1 0 23.5 0 a11.75 11.75 0 1 0 -23.5 0zM105.75 258.5 a11.75 11.75 0 1 0 23.5 0 a11.75 11.75 0 1 0 -23.5 0zM763.75 305.5 a11.75 11.75 0 1 0 23.5 0 a11.75 11.75 0 1 0 -23.5 0z" fill="url(#SvgjsLinearGradient1084)"></path></g></g><defs><mask id="SvgjsMask1083"><rect width="1920" height="1080" fill="#ffffff"></rect></mask><linearGradient x1="0" y1="540" x2="883.2" y2="540" gradientUnits="userSpaceOnUse" id="SvgjsLinearGradient1084"><stop stop-color="#3a7cc3" offset="0"></stop><stop stop-color="rgba(255, 0, 0, 1)" offset="0.39"></stop><stop stop-color="rgba(132, 255, 0, 1)" offset="0.91"></stop></linearGradient><mask id="SvgjsMask1085"><rect width="1920" height="1080" fill="white"></rect><path d="M111.62 540.5 a5.88 5.88 0 1 0 11.76 0 a5.88 5.88 0 1 0 -11.76 0z" fill="black"></path><path d="M628.62 446.5 a5.88 5.88 0 1 0 11.76 0 a5.88 5.88 0 1 0 -11.76 0zM487.62 493.5 a5.88 5.88 0 1 0 11.76 0 a5.88 5.88 0 1 0 -11.76 0zM487.62 540.5 a5.88 5.88 0 1 0 11.76 0 a5.88 5.88 0 1 0 -11.76 0zM722.62 540.5 a5.88 5.88 0 1 0 11.76 0 a5.88 5.88 0 1 0 -11.76 0z" fill="black"></path><path d="M299.62 634.5 a5.88 5.88 0 1 0 11.76 0 a5.88 5.88 0 1 0 -11.76 0zM299.62 587.5 a5.88 5.88 0 1 0 11.76 0 a5.88 5.88 0 1 0 -11.76 0zM299.62 540.5 a5.88 5.88 0 1 0 11.76 0 a5.88 5.88 0 1 0 -11.76 0z" fill="black"></path><path d="M628.62 399.5 a5.88 5.88 0 1 0 11.76 0 a5.88 5.88 0 1 0 -11.76 0z" fill="black"></path><path d="M158.62 634.5 a5.88 5.88 0 1 0 11.76 0 a5.88 5.88 0 1 0 -11.76 0z" fill="black"></path><path d="M205.62 399.5 a5.88 5.88 0 1 0 11.76 0 a5.88 5.88 0 1 0 -11.76 0zM111.62 352.5 a5.88 5.88 0 1 0 11.76 0 a5.88 5.88 0 1 0 -11.76 0zM299.62 352.5 a5.88 5.88 0 1 0 11.76 0 a5.88 5.88 0 1 0 -11.76 0z" fill="black"></path><path d="M628.62 728.5 a5.88 5.88 0 1 0 11.76 0 a5.88 5.88 0 1 0 -11.76 0zM581.62 681.5 a5.88 5.88 0 1 0 11.76 0 a5.88 5.88 0 1 0 -11.76 0zM487.62 681.5 a5.88 5.88 0 1 0 11.76 0 a5.88 5.88 0 1 0 -11.76 0zM769.62 822.5 a5.88 5.88 0 1 0 11.76 0 a5.88 5.88 0 1 0 -11.76 0z" fill="black"></path><path d="M440.62 775.5 a5.88 5.88 0 1 0 11.76 0 a5.88 5.88 0 1 0 -11.76 0zM346.62 822.5 a5.88 5.88 0 1 0 11.76 0 a5.88 5.88 0 1 0 -11.76 0zM205.62 775.5 a5.88 5.88 0 1 0 11.76 0 a5.88 5.88 0 1 0 -11.76 0zM158.62 822.5 a5.88 5.88 0 1 0 11.76 0 a5.88 5.88 0 1 0 -11.76 0z" fill="black"></path><path d="M675.62 305.5 a5.88 5.88 0 1 0 11.76 0 a5.88 5.88 0 1 0 -11.76 0zM252.62 258.5 a5.88 5.88 0 1 0 11.76 0 a5.88 5.88 0 1 0 -11.76 0zM628.62 305.5 a5.88 5.88 0 1 0 11.76 0 a5.88 5.88 0 1 0 -11.76 0zM111.62 258.5 a5.88 5.88 0 1 0 11.76 0 a5.88 5.88 0 1 0 -11.76 0zM769.62 305.5 a5.88 5.88 0 1 0 11.76 0 a5.88 5.88 0 1 0 -11.76 0z" fill="black"></path></mask></defs></svg>