<svg xmlns="http://www.w3.org/2000/svg" version="1.1" xmlns:xlink="http://www.w3.org/1999/xlink" xmlns:svgjs="http://svgjs.com/svgjs" width="1080" height="1920" preserveAspectRatio="none" viewBox="0 0 1080 1920"><g mask="url(&quot;#SvgjsMask1010&quot;)" fill="none"><rect width="1080" height="1920" x="0" y="0" fill="rgba(255, 255, 255, 1)"></rect><g mask="url(&quot;#SvgjsMask1011&quot;)"><path d="M587.5 164.5L587.5 211.5L587.5 258.5L587.5 305.5M587.5 117.5L540.5 164.5M540.5 70.5L540.5 117.5M540.5 -23.5L540.5 23.5L540.5 70.5L587.5 117.5L587.5 164.5L634.5 211.5" stroke="rgba(253, 163, 27, 1)" stroke-width="7.83"></path><path d="M622.75 211.5 a11.75 11.75 0 1 0 23.5 0 a11.75 11.75 0 1 0 -23.5 0zM575.75 305.5 a11.75 11.75 0 1 0 23.5 0 a11.75 11.75 0 1 0 -23.5 0zM528.75 164.5 a11.75 11.75 0 1 0 23.5 0 a11.75 11.75 0 1 0 -23.5 0zM528.75 117.5 a11.75 11.75 0 1 0 23.5 0 a11.75 11.75 0 1 0 -23.5 0z" fill="rgba(253, 163, 27, 1)"></path><path d="M493.5 211.5L446.5 258.5L446.5 305.5L446.5 352.5M493.5 -23.5L493.5 23.5L493.5 70.5L493.5 117.5L493.5 164.5L493.5 211.5L493.5 258.5" stroke="rgba(253, 163, 27, 1)" stroke-width="7.83"></path><path d="M481.75 258.5 a11.75 11.75 0 1 0 23.5 0 a11.75 11.75 0 1 0 -23.5 0zM434.75 352.5 a11.75 11.75 0 1 0 23.5 0 a11.75 11.75 0 1 0 -23.5 0z" fill="rgba(253, 163, 27, 1)"></path><path d="M634.5 117.5L681.5 164.5M587.5 -23.5L587.5 23.5L587.5 70.5L634.5 117.5L634.5 164.5L681.5 211.5" stroke="rgba(253, 163, 27, 1)" stroke-width="7.83"></path><path d="M669.75 211.5 a11.75 11.75 0 1 0 23.5 0 a11.75 11.75 0 1 0 -23.5 0zM669.75 164.5 a11.75 11.75 0 1 0 23.5 0 a11.75 11.75 0 1 0 -23.5 0z" fill="rgba(253, 163, 27, 1)"></path><path d="M446.5 164.5L446.5 211.5M446.5 -23.5L446.5 23.5L446.5 70.5L446.5 117.5L446.5 164.5L399.5 211.5L399.5 258.5L399.5 305.5L399.5 352.5" stroke="rgba(253, 163, 27, 1)" stroke-width="7.83"></path><path d="M387.75 352.5 a11.75 11.75 0 1 0 23.5 0 a11.75 11.75 0 1 0 -23.5 0zM434.75 211.5 a11.75 11.75 0 1 0 23.5 0 a11.75 11.75 0 1 0 -23.5 0z" fill="rgba(253, 163, 27, 1)"></path><path d="M634.5 -23.5L634.5 23.5L634.5 70.5" stroke="rgba(253, 163, 27, 1)" stroke-width="7.83"></path><path d="M622.75 70.5 a11.75 11.75 0 1 0 23.5 0 a11.75 11.75 0 1 0 -23.5 0z" fill="rgba(253, 163, 27, 1)"></path><path d="M399.5 -23.5L399.5 23.5L399.5 70.5L399.5 117.5L399.5 164.5L352.5 211.5L352.5 258.5L352.5 305.5" stroke="rgba(253, 163, 27, 1)" stroke-width="7.83"></path><path d="M340.75 305.5 a11.75 11.75 0 1 0 23.5 0 a11.75 11.75 0 1 0 -23.5 0z" fill="rgba(253, 163, 27, 1)"></path><path d="M681.5 -23.5L681.5 23.5" stroke="rgba(253, 163, 27, 1)" stroke-width="7.83"></path><path d="M669.75 23.5 a11.75 11.75 0 1 0 23.5 0 a11.75 11.75 0 1 0 -23.5 0z" fill="rgba(253, 163, 27, 1)"></path><path d="M352.5 70.5L305.5 117.5M352.5 23.5L305.5 70.5L258.5 117.5L258.5 164.5L258.5 211.5M352.5 -23.5L352.5 23.5L352.5 70.5L352.5 117.5L352.5 164.5L305.5 211.5L305.5 258.5" stroke="rgba(253, 163, 27, 1)" stroke-width="7.83"></path><path d="M293.75 258.5 a11.75 11.75 0 1 0 23.5 0 a11.75 11.75 0 1 0 -23.5 0zM293.75 117.5 a11.75 11.75 0 1 0 23.5 0 a11.75 11.75 0 1 0 -23.5 0zM246.75 211.5 a11.75 11.75 0 1 0 23.5 0 a11.75 11.75 0 1 0 -23.5 0z" fill="rgba(253, 163, 27, 1)"></path><path d="M728.5 23.5L775.5 70.5L775.5 117.5L775.5 164.5L775.5 211.5M728.5 258.5L728.5 305.5M681.5 352.5L634.5 399.5M728.5 -23.5L728.5 23.5L728.5 70.5L728.5 117.5L728.5 164.5L728.5 211.5L728.5 258.5L681.5 305.5L681.5 352.5L681.5 399.5" stroke="rgba(253, 163, 27, 1)" stroke-width="7.83"></path><path d="M669.75 399.5 a11.75 11.75 0 1 0 23.5 0 a11.75 11.75 0 1 0 -23.5 0zM763.75 211.5 a11.75 11.75 0 1 0 23.5 0 a11.75 11.75 0 1 0 -23.5 0zM716.75 305.5 a11.75 11.75 0 1 0 23.5 0 a11.75 11.75 0 1 0 -23.5 0zM622.75 399.5 a11.75 11.75 0 1 0 23.5 0 a11.75 11.75 0 1 0 -23.5 0z" fill="rgba(253, 163, 27, 1)"></path></g></g><defs><mask id="SvgjsMask1010"><rect width="1080" height="1920" fill="#ffffff"></rect></mask><mask id="SvgjsMask1011"><rect width="1080" height="1920" fill="white"></rect><path d="M628.62 211.5 a5.88 5.88 0 1 0 11.76 0 a5.88 5.88 0 1 0 -11.76 0zM581.62 305.5 a5.88 5.88 0 1 0 11.76 0 a5.88 5.88 0 1 0 -11.76 0zM534.62 164.5 a5.88 5.88 0 1 0 11.76 0 a5.88 5.88 0 1 0 -11.76 0zM534.62 117.5 a5.88 5.88 0 1 0 11.76 0 a5.88 5.88 0 1 0 -11.76 0z" fill="black"></path><path d="M487.62 258.5 a5.88 5.88 0 1 0 11.76 0 a5.88 5.88 0 1 0 -11.76 0zM440.62 352.5 a5.88 5.88 0 1 0 11.76 0 a5.88 5.88 0 1 0 -11.76 0z" fill="black"></path><path d="M675.62 211.5 a5.88 5.88 0 1 0 11.76 0 a5.88 5.88 0 1 0 -11.76 0zM675.62 164.5 a5.88 5.88 0 1 0 11.76 0 a5.88 5.88 0 1 0 -11.76 0z" fill="black"></path><path d="M393.62 352.5 a5.88 5.88 0 1 0 11.76 0 a5.88 5.88 0 1 0 -11.76 0zM440.62 211.5 a5.88 5.88 0 1 0 11.76 0 a5.88 5.88 0 1 0 -11.76 0z" fill="black"></path><path d="M628.62 70.5 a5.88 5.88 0 1 0 11.76 0 a5.88 5.88 0 1 0 -11.76 0z" fill="black"></path><path d="M346.62 305.5 a5.88 5.88 0 1 0 11.76 0 a5.88 5.88 0 1 0 -11.76 0z" fill="black"></path><path d="M675.62 23.5 a5.88 5.88 0 1 0 11.76 0 a5.88 5.88 0 1 0 -11.76 0z" fill="black"></path><path d="M299.62 258.5 a5.88 5.88 0 1 0 11.76 0 a5.88 5.88 0 1 0 -11.76 0zM299.62 117.5 a5.88 5.88 0 1 0 11.76 0 a5.88 5.88 0 1 0 -11.76 0zM252.62 211.5 a5.88 5.88 0 1 0 11.76 0 a5.88 5.88 0 1 0 -11.76 0z" fill="black"></path><path d="M675.62 399.5 a5.88 5.88 0 1 0 11.76 0 a5.88 5.88 0 1 0 -11.76 0zM769.62 211.5 a5.88 5.88 0 1 0 11.76 0 a5.88 5.88 0 1 0 -11.76 0zM722.62 305.5 a5.88 5.88 0 1 0 11.76 0 a5.88 5.88 0 1 0 -11.76 0zM628.62 399.5 a5.88 5.88 0 1 0 11.76 0 a5.88 5.88 0 1 0 -11.76 0z" fill="black"></path></mask></defs></svg>